<?xml version="1.0" encoding="UTF-8"?><svg id="Camada_2" xmlns="http://www.w3.org/2000/svg" viewBox="0 0 104 104"><defs><style>.cls-1{fill:#456caa;}</style></defs><g id="Camada_1-2"><path class="cls-1" d="M52,0h0c3.31,0,6,5.37,6,12h0c0,6.63-2.69,12-6,12h0c-3.31,0-6-5.37-6-12h0c0-6.63,2.69-12,6-12Z"/><path class="cls-1" d="M78,6.97h0c2.87,1.66,2.51,7.65-.8,13.39h0c-3.31,5.74-8.33,9.05-11.2,7.39h0c-2.87-1.66-2.51-7.65,.8-13.39h0c3.31-5.74,8.33-9.05,11.2-7.39Z"/><path class="cls-1" d="M97.03,26h0c1.66,2.87-1.65,7.88-7.39,11.2h0c-5.74,3.31-11.74,3.67-13.39,.8h0c-1.66-2.87,1.65-7.88,7.39-11.2h0c5.74-3.31,11.74-3.67,13.39-.8Z"/><path class="cls-1" d="M104,52h0c0,3.31-5.37,6-12,6h0c-6.63,0-12-2.69-12-6h0c0-3.31,5.37-6,12-6h0c6.63,0,12,2.69,12,6Z"/><path class="cls-1" d="M97.03,78h0c-1.66,2.87-7.65,2.51-13.39-.8h0c-5.74-3.31-9.05-8.33-7.39-11.2h0c1.66-2.87,7.65-2.51,13.39,.8h0c5.74,3.31,9.05,8.33,7.39,11.2Z"/><path class="cls-1" d="M78,97.03h0c-2.87,1.66-7.88-1.65-11.2-7.39h0c-3.31-5.74-3.67-11.74-.8-13.39h0c2.87-1.66,7.88,1.65,11.2,7.39h0c3.31,5.74,3.67,11.74,.8,13.39Z"/><path class="cls-1" d="M52,104h0c-3.31,0-6-5.37-6-12h0c0-6.63,2.69-12,6-12h0c3.31,0,6,5.37,6,12h0c0,6.63-2.69,12-6,12Z"/><path class="cls-1" d="M26,97.03h0c-2.87-1.66-2.51-7.65,.8-13.39h0c3.31-5.74,8.33-9.05,11.2-7.39h0c2.87,1.66,2.51,7.65-.8,13.39h0c-3.31,5.74-8.33,9.05-11.2,7.39Z"/><path class="cls-1" d="M6.97,78h0c-1.66-2.87,1.65-7.88,7.39-11.2h0c5.74-3.31,11.74-3.67,13.39-.8h0c1.66,2.87-1.65,7.88-7.39,11.2h0c-5.74,3.31-11.74,3.67-13.39,.8Z"/><path class="cls-1" d="M0,52H0c0-3.31,5.37-6,12-6h0c6.63,0,12,2.69,12,6h0c0,3.31-5.37,6-12,6h0c-6.63,0-12-2.69-12-6Z"/><path class="cls-1" d="M6.97,26h0c1.66-2.87,7.65-2.51,13.39,.8h0c5.74,3.31,9.05,8.33,7.39,11.2h0c-1.66,2.87-7.65,2.51-13.39-.8h0c-5.74-3.31-9.05-8.33-7.39-11.2Z"/><path class="cls-1" d="M26,6.97h0c2.87-1.66,7.88,1.65,11.2,7.39h0c3.31,5.74,3.67,11.74,.8,13.39h0c-2.87,1.66-7.88-1.65-11.2-7.39h0c-3.31-5.74-3.67-11.74-.8-13.39Z"/></g></svg>